# xmcd CD database file
#
# Track frame offsets:
#	150
#	17557
#	37819
#	58001
#	71206
#	92122
#	110840
#	129572
#	146959
#	161627
#	185903
#	204062
#
# Disc length: 2916 seconds
#
# Revision: 0
# Processed by: cddbd v1.5.2PL0 Copyright (c) Steve Scherf et al.
# Submitted via: CDex 1.51
#
DISCID=b10b620c
DTITLE=Johnny Rodgers - Box of Photographs
DYEAR=2005
DGENRE=Country
TTITLE0=Box of Photographs
TTITLE1=Midday Moon
TTITLE2=Is It The Way?
TTITLE3=Mary Jean
TTITLE4=She
TTITLE5=One More Moment
TTITLE6=Miss Dixie
TTITLE7=Just That Way (Never Take The Blame)
TTITLE8=Movin' Into Graceland
TTITLE9=In The End (Song For My Father)
TTITLE10=Sweet Georgia Smile
TTITLE11=Home To Mendocino
EXTD=YEAR: 2005
EXTT0=
EXTT1=
EXTT2=
EXTT3=
EXTT4=
EXTT5=
EXTT6=
EXTT7=
EXTT8=
EXTT9=
EXTT10=
EXTT11=
PLAYORDER=
